<svg width="491" height="952" viewBox="0 0 491 952" fill="none" xmlns="http://www.w3.org/2000/svg">
<path fill-rule="evenodd" clip-rule="evenodd" d="M149.089 627.141C107.086 569.769 37.8085 545.257 54.3058 476.093C70.0272 410.183 155.098 404.645 214.811 372.619C275.912 339.849 309.639 276.697 372.813 305.267C435.771 333.739 471.749 398.824 486.21 466.391C499.883 530.272 480.908 592.963 446.239 648.332C406.178 712.312 359.104 783.893 283.833 789.6C206.011 795.501 195.193 690.113 149.089 627.141Z" stroke="#31432D" stroke-width="2"/>
<path fill-rule="evenodd" clip-rule="evenodd" d="M959.729 501.142C958.767 578.61 902.099 643.641 852.366 702.371C802.52 761.235 743.667 811.993 672.971 839.78C601.007 868.064 516.545 895.059 447.501 861.5C378.206 827.818 370.476 729.052 321.155 668.776C281.049 619.762 217.579 596.435 185.581 541.406C149.425 479.228 100.836 403.58 127.5 335.74C155.353 264.874 259.528 269.042 313.384 216.234C360.265 170.266 354.706 67.1511 417.39 51.4931C482.359 35.2644 529.107 118.848 589.45 147.275C633.446 168.001 682.028 171.575 724.159 196.01C774.033 224.936 821.727 256.523 857.328 302.638C903.347 362.245 960.68 424.515 959.729 501.142Z" fill="#9F492D"/>
</svg>
