<?xml version="1.0" encoding="utf-8"?>
<!-- Generator: Adobe Illustrator 26.5.0, SVG Export Plug-In . SVG Version: 6.00 Build 0)  -->
<svg version="1.1" id="Layer_1" xmlns="http://www.w3.org/2000/svg" xmlns:xlink="http://www.w3.org/1999/xlink" x="0px" y="0px"
	 viewBox="0 0 491 952" style="enable-background:new 0 0 491 952;" xml:space="preserve">
<style type="text/css">
	.st0{fill:none;stroke:#31432D;stroke-width:2;}
	.st1{fill-rule:evenodd;clip-rule:evenodd;fill:#9F492D;}
</style>
<path class="st0" d="M149.1,627.1c-42-57.4-111.3-81.9-94.8-151c15.7-65.9,100.8-71.4,160.5-103.5c61.1-32.8,94.8-95.9,158-67.4
	c63,28.5,98.9,93.6,113.4,161.1c13.7,63.9-5.3,126.6-40,181.9c-40.1,64-87.1,135.6-162.4,141.3C206,795.5,195.2,690.1,149.1,627.1z"
	/>
<path class="st1" d="M959.7,501.1c-1,77.5-57.6,142.5-107.4,201.2C802.5,761.2,743.7,812,673,839.8c-72,28.3-156.4,55.3-225.5,21.7
	c-69.3-33.7-77-132.4-126.3-192.7c-40.1-49-103.6-72.3-135.6-127.4c-36.2-62.2-84.7-137.8-58.1-205.7
	c27.9-70.9,132-66.7,185.9-119.5c46.9-46,41.3-149.1,104-164.7c65-16.2,111.7,67.4,172.1,95.8c44,20.7,92.6,24.3,134.7,48.7
	c49.9,28.9,97.6,60.5,133.2,106.6C903.3,362.2,960.7,424.5,959.7,501.1z"/>
</svg>
